<svg width="245" height="90" viewBox="0 0 245 90" fill="none" xmlns="http://www.w3.org/2000/svg">
<path d="M47.536 36.128C47.536 37.888 47.088 39.568 46.192 41.168C45.328 42.768 44.144 44.176 42.64 45.392C41.168 46.576 39.424 47.52 37.408 48.224C35.424 48.928 33.312 49.28 31.072 49.28C30.272 49.28 29.632 49.184 29.152 48.992C28.704 48.768 28.192 48.352 27.616 47.744C26.016 51.232 24.704 54.448 23.68 57.392C22.688 60.304 21.904 63.136 21.328 65.888C20.112 65.6 19.12 65.088 18.352 64.352C17.584 63.648 16.88 62.752 16.24 61.664C16.56 61.056 16.944 60.256 17.392 59.264C17.84 58.272 18.384 57.056 19.024 55.616C19.664 54.144 20.4 52.4 21.232 50.384C22.096 48.336 23.104 45.952 24.256 43.232C24.768 41.984 25.216 40.896 25.6 39.968C25.984 39.04 26.32 38.176 26.608 37.376C26.896 36.544 27.152 35.728 27.376 34.928C27.632 34.128 27.888 33.248 28.144 32.288C26.64 32.768 25.248 33.328 23.968 33.968C22.72 34.608 21.68 35.28 20.848 35.984C20.56 35.792 20.256 35.504 19.936 35.12C19.648 34.736 19.376 34.32 19.12 33.872C18.864 33.392 18.64 32.912 18.448 32.432C18.256 31.952 18.144 31.52 18.112 31.136C19.04 30.496 20.192 29.904 21.568 29.36C22.944 28.816 24.416 28.352 25.984 27.968C27.552 27.552 29.168 27.232 30.832 27.008C32.528 26.784 34.144 26.672 35.68 26.672C37.504 26.672 39.152 26.912 40.624 27.392C42.096 27.84 43.344 28.48 44.368 29.312C45.392 30.144 46.176 31.136 46.72 32.288C47.264 33.44 47.536 34.72 47.536 36.128ZM38.992 30.368C37.776 30.368 36.528 30.464 35.248 30.656L35.824 31.52C35.504 31.936 35.104 32.56 34.624 33.392C34.144 34.224 33.616 35.232 33.04 36.416C32.464 37.568 31.824 38.864 31.12 40.304C30.448 41.744 29.728 43.264 28.96 44.864C31.456 44.864 33.728 44.64 35.776 44.192C37.824 43.712 39.568 43.072 41.008 42.272C42.48 41.44 43.616 40.48 44.416 39.392C45.248 38.304 45.664 37.136 45.664 35.888C45.664 34.224 45.104 32.896 43.984 31.904C42.864 30.88 41.2 30.368 38.992 30.368ZM44.9728 61.04C45.1328 60.112 45.4048 58.896 45.7888 57.392C46.2048 55.856 46.6848 54.24 47.2288 52.544C47.7728 50.816 48.3488 49.088 48.9568 47.36C49.5648 45.632 50.1568 44.08 50.7328 42.704C51.1488 41.712 51.5168 40.944 51.8368 40.4C52.1568 39.824 52.5088 39.344 52.8928 38.96C53.3408 39.024 53.8048 39.136 54.2848 39.296C54.7648 39.456 55.2288 39.648 55.6768 39.872C56.1248 40.096 56.5248 40.336 56.8768 40.592C57.2288 40.816 57.5008 41.04 57.6928 41.264C56.8288 42.288 56.0608 43.456 55.3888 44.768C54.7488 46.08 54.0928 47.76 53.4208 49.808C55.1488 48.272 56.6688 46.8 57.9808 45.392C59.3248 43.984 60.5728 42.416 61.7248 40.688C61.9168 40.528 62.2528 40.448 62.7328 40.448C63.1808 40.448 63.6128 40.528 64.0288 40.688C64.4448 40.816 64.7328 41.008 64.8928 41.264C64.3168 42.8 64.0288 44.32 64.0288 45.824C64.0288 47.232 64.2368 48.288 64.6528 48.992C64.6208 49.184 64.3968 49.552 63.9808 50.096C63.5968 50.64 63.1648 51.152 62.6848 51.632C61.8208 51.184 61.0528 50.576 60.3808 49.808C59.7088 49.008 59.2128 48.144 58.8928 47.216C57.3888 48.272 56.1088 49.312 55.0528 50.336C53.9968 51.328 53.0848 52.448 52.3168 53.696C51.5808 54.912 50.9408 56.32 50.3968 57.92C49.8848 59.52 49.3888 61.424 48.9088 63.632C48.6208 63.6 48.2688 63.488 47.8528 63.296C47.4688 63.136 47.0688 62.928 46.6528 62.672C46.2688 62.416 45.9168 62.144 45.5968 61.856C45.2768 61.568 45.0688 61.296 44.9728 61.04ZM72.1481 63.68C70.3241 63.488 68.8681 62.688 67.7801 61.28C66.6921 59.872 66.1481 58.08 66.1481 55.904C66.1481 54.624 66.3401 53.296 66.7241 51.92C67.1081 50.544 67.6521 49.216 68.3561 47.936C69.0601 46.624 69.8921 45.392 70.8521 44.24C71.8121 43.088 72.8521 42.096 73.9721 41.264C75.7321 39.952 77.3801 39.296 78.9161 39.296C79.9401 39.84 80.9481 40.976 81.9401 42.704C82.1001 42.704 82.2441 42.704 82.3721 42.704C82.5001 42.672 82.6441 42.656 82.8041 42.656C84.5001 42.656 85.3481 44.16 85.3481 47.168C85.3481 49.184 85.0121 51.104 84.3401 52.928C83.7001 54.72 82.7881 56.352 81.6041 57.824C80.4521 59.296 79.0601 60.544 77.4281 61.568C75.8281 62.56 74.0681 63.264 72.1481 63.68ZM74.5961 48.56C74.0521 49.296 73.5401 50.096 73.0601 50.96C72.5801 51.824 72.1641 52.704 71.8121 53.6C71.4601 54.464 71.1881 55.312 70.9961 56.144C70.8041 56.944 70.7081 57.664 70.7081 58.304C70.7081 59.072 70.8361 59.808 71.0921 60.512C71.3481 61.216 71.6361 61.616 71.9561 61.712C73.3961 61.392 74.7081 60.8 75.8921 59.936C77.1081 59.04 78.1481 57.936 79.0121 56.624C79.9081 55.312 80.5961 53.824 81.0761 52.16C81.5881 50.496 81.8441 48.72 81.8441 46.832C81.8441 46 81.7961 45.344 81.7001 44.864C81.6041 44.384 81.4441 43.968 81.2201 43.616C79.8121 44.032 78.5481 44.704 77.4281 45.632C76.3401 46.56 75.3961 47.536 74.5961 48.56ZM99.1356 39.584C99.7756 39.584 100.512 39.776 101.344 40.16C102.176 40.544 102.912 41.04 103.552 41.648C103.392 40.368 103.184 39.168 102.928 38.048C102.704 36.896 102.352 35.712 101.872 34.496C101.424 33.28 100.816 31.952 100.048 30.512C99.2796 29.072 98.3196 27.424 97.1676 25.568C97.2636 25.28 97.4716 24.944 97.7916 24.56C98.1436 24.176 98.5276 23.824 98.9436 23.504C99.3916 23.152 99.8396 22.848 100.288 22.592C100.768 22.336 101.216 22.176 101.632 22.112C102.528 23.104 103.376 24.352 104.176 25.856C104.976 27.328 105.68 28.928 106.288 30.656C106.896 32.352 107.36 34.112 107.68 35.936C108.032 37.76 108.208 39.504 108.208 41.168C108.208 42.832 108.016 44.544 107.632 46.304C107.28 48.064 106.768 49.792 106.096 51.488C105.456 53.152 104.704 54.736 103.84 56.24C102.976 57.744 102.032 59.088 101.008 60.272C100.016 61.456 98.9756 62.416 97.8876 63.152C96.7996 63.92 95.7116 64.4 94.6236 64.592C92.4156 64.336 90.7196 63.616 89.5356 62.432C88.3836 61.28 87.8076 59.68 87.8076 57.632C87.8076 56.544 87.9676 55.36 88.2876 54.08C88.6396 52.8 89.0876 51.536 89.6316 50.288C90.2076 49.008 90.8636 47.776 91.5996 46.592C92.3676 45.376 93.1676 44.288 93.9996 43.328C94.8636 42.368 95.7276 41.552 96.5916 40.88C97.4556 40.208 98.3036 39.776 99.1356 39.584ZM94.2396 62.672C95.3596 62.288 96.4796 61.44 97.5996 60.128C98.7196 58.816 99.7276 57.28 100.624 55.52C101.52 53.728 102.24 51.824 102.784 49.808C103.36 47.76 103.648 45.792 103.648 43.904C103.648 43.36 103.648 43.024 103.648 42.896C103.648 42.768 103.632 42.64 103.6 42.512C102.832 42.832 102.016 43.376 101.152 44.144C100.288 44.912 99.4236 45.808 98.5596 46.832C97.6956 47.824 96.8796 48.912 96.1116 50.096C95.3436 51.28 94.6556 52.464 94.0476 53.648C93.4396 54.832 92.9596 55.968 92.6076 57.056C92.2556 58.144 92.0796 59.104 92.0796 59.936C92.0796 61.536 92.7996 62.448 94.2396 62.672ZM126.997 42.608C127.317 42.608 127.685 42.672 128.101 42.8C128.549 42.896 128.949 43.04 129.301 43.232C129.653 43.392 129.941 43.568 130.165 43.76C130.421 43.952 130.549 44.128 130.549 44.288C129.909 45.632 129.317 46.992 128.773 48.368C128.229 49.712 127.765 51.008 127.381 52.256C126.997 53.504 126.693 54.672 126.469 55.76C126.277 56.848 126.181 57.792 126.181 58.592C126.181 59.488 126.277 60.24 126.469 60.848C126.661 61.424 126.981 61.84 127.429 62.096C127.045 62.352 126.549 62.56 125.941 62.72C125.333 62.88 124.789 62.96 124.309 62.96C122.581 62.96 121.717 61.776 121.717 59.408C121.717 57.584 122.325 55.088 123.541 51.92C122.901 53.392 122.165 54.784 121.333 56.096C120.501 57.376 119.653 58.512 118.789 59.504C117.925 60.496 117.045 61.312 116.149 61.952C115.285 62.56 114.485 62.928 113.749 63.056C112.565 62.992 111.605 62.432 110.869 61.376C110.133 60.288 109.765 58.912 109.765 57.248C109.765 55.456 110.149 53.568 110.917 51.584C111.685 49.6 112.661 47.76 113.845 46.064C115.061 44.368 116.373 42.96 117.781 41.84C119.189 40.688 120.549 40.08 121.861 40.016C122.181 40.112 122.533 40.304 122.917 40.592C123.333 40.88 123.717 41.216 124.069 41.6C124.453 41.984 124.773 42.384 125.029 42.8C125.285 43.184 125.429 43.52 125.461 43.808C124.181 44 122.853 44.624 121.477 45.68C120.133 46.736 118.901 48.016 117.781 49.52C116.693 50.992 115.797 52.576 115.093 54.272C114.389 55.968 114.037 57.552 114.037 59.024C114.037 59.632 114.261 60.016 114.709 60.176C115.637 59.984 116.709 59.2 117.925 57.824C119.141 56.416 120.613 54.256 122.341 51.344C122.661 50.768 123.013 50.128 123.397 49.424C123.813 48.72 124.229 47.984 124.645 47.216C125.061 46.448 125.461 45.68 125.845 44.912C126.261 44.112 126.645 43.344 126.997 42.608ZM136.062 45.008C136.062 44.432 136.094 43.888 136.158 43.376C136.254 42.864 136.43 42.432 136.686 42.08C136.942 41.696 137.294 41.408 137.742 41.216C138.19 40.992 138.782 40.88 139.518 40.88C139.966 40.88 140.462 40.928 141.006 41.024C141.582 41.12 141.998 41.296 142.254 41.552C142.126 42.096 142.014 42.576 141.918 42.992C141.854 43.408 141.79 43.872 141.726 44.384C141.694 44.864 141.662 45.456 141.63 46.16C141.598 46.832 141.566 47.712 141.534 48.8C141.47 50.976 141.358 52.928 141.198 54.656C141.07 56.352 140.75 58.048 140.238 59.744C140.238 59.872 140.286 59.936 140.382 59.936C140.862 59.584 141.406 59.072 142.014 58.4C142.622 57.728 143.262 56.976 143.934 56.144C144.606 55.28 145.278 54.368 145.95 53.408C146.622 52.448 147.246 51.504 147.822 50.576C148.59 49.232 149.438 47.552 150.366 45.536C151.294 43.52 152.062 41.36 152.67 39.056C152.862 39.056 153.102 39.104 153.39 39.2C153.71 39.264 154.014 39.36 154.302 39.488C154.622 39.584 154.894 39.696 155.118 39.824C155.374 39.952 155.55 40.064 155.646 40.16C155.582 41.536 155.246 42.944 154.638 44.384C154.062 45.824 153.358 47.216 152.526 48.56C151.694 49.904 150.814 51.168 149.886 52.352C148.958 53.536 148.11 54.56 147.342 55.424C145.806 57.216 144.254 58.816 142.686 60.224C141.15 61.632 139.31 62.992 137.166 64.304C136.334 63.984 135.678 63.552 135.198 63.008C134.718 62.496 134.478 61.952 134.478 61.376C134.478 60.992 134.558 60.56 134.718 60.08C134.91 59.568 135.118 58.928 135.342 58.16C135.566 57.36 135.758 56.368 135.918 55.184C136.11 54 136.206 52.496 136.206 50.672C136.206 49.616 136.174 48.56 136.11 47.504C136.078 46.416 136.062 45.584 136.062 45.008ZM163.713 38.72C164.545 38.976 165.329 39.552 166.065 40.448C166.801 41.312 167.345 42.272 167.697 43.328C167.345 44.192 166.801 45.232 166.065 46.448C165.329 47.664 164.593 48.912 163.857 50.192C163.121 51.44 162.449 52.64 161.841 53.792C161.265 54.912 160.929 55.84 160.833 56.576C161.345 56.032 161.905 55.408 162.513 54.704C163.153 53.968 163.761 53.248 164.337 52.544C164.945 51.808 165.505 51.152 166.017 50.576C166.529 49.968 166.929 49.52 167.217 49.232C167.825 48.592 168.545 47.856 169.377 47.024C170.209 46.16 171.073 45.36 171.969 44.624C172.897 43.856 173.825 43.216 174.753 42.704C175.681 42.16 176.529 41.888 177.297 41.888C178.129 41.888 178.817 42.176 179.361 42.752C179.937 43.296 180.385 43.872 180.705 44.48C180.705 44.544 180.577 44.64 180.321 44.768C180.097 44.864 179.761 45.168 179.313 45.68C178.865 46.256 178.353 47.056 177.777 48.08C177.233 49.072 176.689 50.16 176.145 51.344C175.633 52.496 175.201 53.68 174.849 54.896C174.497 56.112 174.321 57.216 174.321 58.208C174.321 59.008 174.417 59.52 174.609 59.744C174.833 59.968 175.137 60.08 175.521 60.08C175.873 60.08 176.241 60 176.625 59.84C177.009 59.68 177.313 59.6 177.537 59.6C177.665 59.664 177.761 59.808 177.825 60.032C177.921 60.224 177.969 60.4 177.969 60.56C177.713 60.784 177.409 61.008 177.057 61.232C176.705 61.456 176.337 61.664 175.953 61.856C175.569 62.048 175.185 62.208 174.801 62.336C174.449 62.464 174.129 62.528 173.841 62.528C172.913 62.528 172.145 62.384 171.537 62.096C170.961 61.84 170.497 61.488 170.145 61.04C169.825 60.592 169.601 60.064 169.473 59.456C169.345 58.816 169.281 58.144 169.281 57.44C169.281 57.056 169.313 56.624 169.377 56.144C169.441 55.664 169.569 55.104 169.761 54.464C169.953 53.792 170.225 53.008 170.577 52.112C170.929 51.184 171.377 50.08 171.921 48.8C171.857 48.8 171.425 49.024 170.625 49.472C169.825 49.92 168.961 50.608 168.033 51.536C166.529 52.976 165.169 54.4 163.953 55.808C162.769 57.216 161.553 58.784 160.305 60.512C159.601 61.504 158.977 62.336 158.433 63.008C157.921 63.712 157.473 64.176 157.089 64.4C156.417 64.016 155.921 63.472 155.601 62.768C155.281 62.096 155.041 61.392 154.881 60.656C154.881 60.048 154.961 59.28 155.121 58.352C155.313 57.424 155.553 56.4 155.841 55.28C156.161 54.128 156.545 52.928 156.993 51.68C157.441 50.432 157.937 49.184 158.481 47.936C159.697 45.12 160.801 42.912 161.793 41.312C162.817 39.712 163.457 38.848 163.713 38.72ZM182.907 58.784C182.907 58.496 182.923 58.144 182.955 57.728C183.019 57.28 183.115 56.704 183.243 56C183.371 55.264 183.531 54.384 183.723 53.36C183.947 52.336 184.219 51.104 184.539 49.664C184.603 49.344 184.747 48.832 184.971 48.128C185.195 47.424 185.483 46.688 185.835 45.92C186.219 45.12 186.667 44.352 187.179 43.616C187.723 42.88 188.363 42.336 189.099 41.984C189.643 42.112 190.363 42.448 191.259 42.992C192.155 43.504 192.923 44.224 193.563 45.152C192.827 45.984 192.203 46.816 191.691 47.648C191.211 48.48 190.763 49.344 190.347 50.24C189.963 51.136 189.595 52.064 189.243 53.024C188.923 53.984 188.555 54.992 188.139 56.048C187.787 56.944 187.467 57.872 187.179 58.832C186.891 59.76 186.731 60.576 186.699 61.28C186.699 61.856 186.683 62.256 186.651 62.48C186.651 62.736 186.571 62.864 186.411 62.864C186.283 62.864 186.027 62.784 185.643 62.624C185.259 62.464 184.859 62.224 184.443 61.904C184.059 61.552 183.707 61.12 183.387 60.608C183.067 60.096 182.907 59.488 182.907 58.784ZM192.075 37.952C192.075 37.76 192.123 37.472 192.219 37.088C192.059 36.928 191.915 36.688 191.787 36.368C191.691 36.048 191.643 35.76 191.643 35.504C191.643 35.216 191.675 34.832 191.739 34.352C191.835 33.84 191.947 33.296 192.075 32.72C192.203 32.144 192.363 31.552 192.555 30.944C192.747 30.304 192.939 29.728 193.131 29.216C193.515 29.216 193.979 29.328 194.523 29.552C195.099 29.744 195.675 30.016 196.251 30.368C196.827 30.688 197.355 31.056 197.835 31.472C198.315 31.856 198.683 32.224 198.939 32.576C198.587 32.928 198.123 33.424 197.547 34.064C196.971 34.672 196.411 35.328 195.867 36.032C195.323 36.704 194.827 37.344 194.379 37.952C193.931 38.56 193.643 38.992 193.515 39.248C193.131 39.184 192.795 39.024 192.507 38.768C192.219 38.48 192.075 38.208 192.075 37.952ZM195.491 53.552C195.491 51.728 195.859 49.968 196.595 48.272C197.363 46.544 198.355 45.024 199.571 43.712C200.819 42.368 202.227 41.296 203.795 40.496C205.395 39.664 207.043 39.248 208.739 39.248C210.403 39.248 211.683 39.664 212.579 40.496C213.475 41.328 213.923 42.512 213.923 44.048C213.923 44.784 213.811 45.504 213.587 46.208C213.395 46.88 213.123 47.488 212.771 48.032C212.451 48.576 212.067 49.024 211.619 49.376C211.171 49.696 210.723 49.856 210.275 49.856C209.891 49.856 209.491 49.744 209.075 49.52C208.691 49.264 208.371 48.944 208.115 48.56C210.259 46.608 211.331 44.832 211.331 43.232C211.331 42.304 210.963 41.84 210.227 41.84C209.587 41.84 208.787 42.144 207.827 42.752C206.867 43.36 205.939 44.16 205.043 45.152C203.667 46.688 202.611 48.4 201.875 50.288C201.171 52.144 200.819 54.096 200.819 56.144C200.819 58.736 201.395 60.288 202.547 60.8C203.027 60.736 203.587 60.592 204.227 60.368C204.867 60.144 205.555 59.856 206.291 59.504C207.027 59.12 207.779 58.688 208.547 58.208C209.347 57.728 210.115 57.216 210.851 56.672C210.979 56.768 211.091 56.912 211.187 57.104C211.283 57.296 211.331 57.472 211.331 57.632C210.787 58.304 210.163 58.96 209.459 59.6C208.755 60.24 208.019 60.832 207.251 61.376C206.483 61.888 205.731 62.32 204.995 62.672C204.291 63.056 203.667 63.296 203.123 63.392C202.067 63.296 201.075 62.96 200.147 62.384C199.219 61.84 198.403 61.12 197.699 60.224C197.027 59.328 196.483 58.304 196.067 57.152C195.683 56 195.491 54.8 195.491 53.552ZM232.919 42.608C233.239 42.608 233.607 42.672 234.023 42.8C234.471 42.896 234.871 43.04 235.223 43.232C235.575 43.392 235.863 43.568 236.087 43.76C236.343 43.952 236.471 44.128 236.471 44.288C235.831 45.632 235.239 46.992 234.695 48.368C234.151 49.712 233.687 51.008 233.303 52.256C232.919 53.504 232.615 54.672 232.391 55.76C232.199 56.848 232.103 57.792 232.103 58.592C232.103 59.488 232.199 60.24 232.391 60.848C232.583 61.424 232.903 61.84 233.351 62.096C232.967 62.352 232.471 62.56 231.863 62.72C231.255 62.88 230.711 62.96 230.231 62.96C228.503 62.96 227.639 61.776 227.639 59.408C227.639 57.584 228.247 55.088 229.463 51.92C228.823 53.392 228.087 54.784 227.255 56.096C226.423 57.376 225.575 58.512 224.711 59.504C223.847 60.496 222.967 61.312 222.071 61.952C221.207 62.56 220.407 62.928 219.671 63.056C218.487 62.992 217.527 62.432 216.791 61.376C216.055 60.288 215.687 58.912 215.687 57.248C215.687 55.456 216.071 53.568 216.839 51.584C217.607 49.6 218.583 47.76 219.767 46.064C220.983 44.368 222.295 42.96 223.703 41.84C225.111 40.688 226.471 40.08 227.783 40.016C228.103 40.112 228.455 40.304 228.839 40.592C229.255 40.88 229.639 41.216 229.991 41.6C230.375 41.984 230.695 42.384 230.951 42.8C231.207 43.184 231.351 43.52 231.383 43.808C230.103 44 228.775 44.624 227.399 45.68C226.055 46.736 224.823 48.016 223.703 49.52C222.615 50.992 221.719 52.576 221.015 54.272C220.311 55.968 219.959 57.552 219.959 59.024C219.959 59.632 220.183 60.016 220.631 60.176C221.559 59.984 222.631 59.2 223.847 57.824C225.063 56.416 226.535 54.256 228.263 51.344C228.583 50.768 228.935 50.128 229.319 49.424C229.735 48.72 230.151 47.984 230.567 47.216C230.983 46.448 231.383 45.68 231.767 44.912C232.183 44.112 232.567 43.344 232.919 42.608Z" fill="#102A42"/>
</svg>
